<svg xmlns="http://www.w3.org/2000/svg" viewBox="0 0 43.16 43.16"><defs><style>.cls-1{fill:#fff;}</style></defs><title>Logo</title><g id="katman_2" data-name="katman 2"><g id="Web"><g id="Logo"><path class="cls-1" d="M21.58,0A21.58,21.58,0,1,0,43.16,21.58,21.59,21.59,0,0,0,21.58,0ZM13.22,3.75h.85V5.63L16,4.69l.94,1.88L15,9.38H13.14L9.83,11l2.23-6.71C12.44,4.12,12.83,3.94,13.22,3.75ZM32.48,5.16a19.69,19.69,0,0,1,8.8,16.42,19.92,19.92,0,0,1-.18,2.69l-.75-.81-3.76.93v.94l1.88.94-1.64,2.35-.94.47L33,23.26l-4,.67-.66-1.76L33,20.29l-2-2.46L30,19.7l-2.81.94-.94,2.82-1.88-2.82-2.81.94L19.7,23.46H17.83V20.64H19.7l3.05-3.11,3.05-.29,3.27-3.47L27,11.5l-1.38,1.28.94,1-1.2,1.28-2.39-2.46,3.28-3.23h2.91L30,11.2,31,9.32l1.88-.88L31.9,6.57ZM9.5,6,8.24,9.76l-1.67.56-.94,6.57L3.75,16l-1.2.5A19.71,19.71,0,0,1,9.5,6Zm9.27,7.11h.7l1.17,3.4-.94.35H17.83V16l.94-.94Zm2.81,11.25,4.69,1.88,5.63-.94L34.72,31H36l-2.25,3.76-2.19,3.82a20,20,0,0,1-5.78,2.29l-1.42-1.42V35.65l-2.81-1.87-2.81.94L16,33.78,15,30l1.88-3.75Z"/></g></g></g></svg>