<svg xmlns="http://www.w3.org/2000/svg" xmlns:xlink="http://www.w3.org/1999/xlink" viewBox="0 0 116.08 80.36"><defs><style>.cls-1{fill:none;}.cls-2{clip-path:url(#clip-path);}.cls-3{fill:#fff;}.cls-4{fill:#ef8019;}</style><clipPath id="clip-path" transform="translate(-6 -8.32)"><rect class="cls-1" width="132" height="48"/></clipPath></defs><title>Varlık 3</title><g id="katman_2" data-name="katman 2"><g id="katman_1-2" data-name="katman 1"><g class="cls-2"><path class="cls-3" d="M116.68,48.5c22.19,0-29.84,40.18-52,40.18S-10.9,48.5,11.29,48.5c19.76,0,31.17-40.18,53.36-40.18S93,48.5,116.68,48.5Z" transform="translate(-6 -8.32)"/><g id="surface1"><path class="cls-4" d="M63.92,21.09a1.2,1.2,0,0,0-1.07,1.23V37.41l-4-3.93a1.18,1.18,0,0,0-.87-.35,1.19,1.19,0,0,0-1.12.76,1.17,1.17,0,0,0,.3,1.32l6,5.94.85.85.84-.85,6-5.94a1.2,1.2,0,0,0,0-1.71,1.22,1.22,0,0,0-1.71,0l-4,3.93V22.32a1.18,1.18,0,0,0-.35-.87,1.23,1.23,0,0,0-.87-.36Z" transform="translate(-6 -8.32)"/></g></g></g></g></svg>